ffmpeg started on 2025-05-12 at 15:18:23
Report written to "D:\Convert\FFMetrics\reports\ssim_report-6.txt"
Log level: 32
Command line:
ffmpeg -hide_banner -nostdin -i "G:\\\xc0\xed\xe8\xec\xe5\\\xce\xed\xe3\xee\xe8\xed\xe3\xe8\\!_35_\xcb\xe5\xf2\xee_2024\\DreamCast\\\xc6\xe8\xe7\xed\xfc \xf1 \xec\xee\xe5\xe9 \xf1\xe2\xee\xe4\xed\xee\xe9 \xf1\xe5\xf1\xf2\xf0\xee\xe9\\[DC] Gimai Seikatsu - 07_Telegram_HEVC.mkv" -i "G:\\\xc0\xed\xe8\xec\xe5\\\xce\xed\xe3\xee\xe8\xed\xe3\xe8\\!_35_\xcb\xe5\xf2\xee_2024\\DreamCast\\\xc6\xe8\xe7\xed\xfc \xf1 \xec\xee\xe5\xe9 \xf1\xe2\xee\xe4\xed\xee\xe9 \xf1\xe5\xf1\xf2\xf0\xee\xe9\\[DC] Gimai Seikatsu - 07_Telegram.mp4" -lavfi "[0:v]settb=AVTB,setpts=PTS-STARTPTS,format=pix_fmts=yuv420p10,fps=24000/1001,scale=1920:1080:flags=bicubic[main];[1:v]settb=AVTB,setpts=PTS-STARTPTS,format=pix_fmts=yuv420p,fps=24000/1001,scale=1920:1080:flags=bicubic[ref];[main][ref]ssim=eof_action=endall:stats_file='D\\:/Convert/FFMetrics/logs/ssim_logfile-6.txt'" -f null -
Input #0, matroska,webm, from 'G:\Аниме\Онгоинги\!_35_Лето_2024\DreamCast\Жизнь с моей сводной сестрой\[DC] Gimai Seikatsu - 07_Telegram_HEVC.mkv':
  Metadata:
    COMPATIBLE_BRANDS: isomiso2avc1mp41
    MAJOR_BRAND     : isom
    MINOR_VERSION   : 512
    ENCODER         : Lavf61.7.100
  Duration: 00:23:56.63, start: -0.021000, bitrate: 1066 kb/s
  Stream #0:0: Video: hevc (Main 10), yuv420p10le(tv, bt709, progressive), 1920x1080 [SAR 1:1 DAR 16:9], 23.98 fps, 23.98 tbr, 1k tbn (default)
      Metadata:
        HANDLER_NAME    : VideoHandler
        VENDOR_ID       : [0][0][0][0]
        ENCODER         : Lavc61.19.100 libx265
        BPS             : 869690
        DURATION        : 00:23:56.518708333
        NUMBER_OF_FRAMES: 34442
        NUMBER_OF_BYTES : 156165728
        _STATISTICS_WRITING_APP: mkvpropedit v66.0.0 ('Josie') 64-bit
        _STATISTICS_WRITING_DATE_UTC: 2025-05-07 13:27:20
        _STATISTICS_TAGS: BPS DURATION NUMBER_OF_FRAMES NUMBER_OF_BYTES
  Stream #0:1: Audio: aac (LC), 48000 Hz, stereo, fltp (default)
      Metadata:
        HANDLER_NAME    : SoundHandler
        VENDOR_ID       : [0][0][0][0]
        ENCODER         : Lavc61.19.100 aac
        BPS             : 192737
        DURATION        : 00:23:56.629000000
        NUMBER_OF_FRAMES: 67343
        NUMBER_OF_BYTES : 34611548
        _STATISTICS_WRITING_APP: mkvpropedit v66.0.0 ('Josie') 64-bit
        _STATISTICS_WRITING_DATE_UTC: 2025-05-07 13:27:20
        _STATISTICS_TAGS: BPS DURATION NUMBER_OF_FRAMES NUMBER_OF_BYTES
Input #1, mov,mp4,m4a,3gp,3g2,mj2, from 'G:\Аниме\Онгоинги\!_35_Лето_2024\DreamCast\Жизнь с моей сводной сестрой\[DC] Gimai Seikatsu - 07_Telegram.mp4':
  Metadata:
    major_brand     : isom
    minor_version   : 512
    compatible_brands: isomiso2avc1mp41
    encoder         : Lavf60.16.100
  Duration: 00:23:56.58, start: 0.000000, bitrate: 3569 kb/s
  Stream #1:0[0x1](und): Video: h264 (High) (avc1 / 0x31637661), yuv420p(tv, bt709, progressive), 1920x1080 [SAR 1:1 DAR 16:9], 3421 kb/s, 23.98 fps, 23.98 tbr, 24k tbn (default)
      Metadata:
        handler_name    : VideoHandler
        vendor_id       : [0][0][0][0]
        encoder         : Lavc60.31.102 h264_qsv
  Stream #1:1[0x2](und): Audio: aac (HE-AACv2) (mp4a / 0x6134706D), 48000 Hz, stereo, fltp, 144 kb/s (default)
      Metadata:
        handler_name    : SoundHandler
        vendor_id       : [0][0][0][0]
Stream mapping:
  Stream #0:0 (hevc) -> settb:default
  Stream #1:0 (h264) -> settb:default
  ssim:default -> Stream #0:0 (wrapped_avframe)
  Stream #0:1 -> #0:1 (aac (native) -> pcm_s16le (native))
Output #0, null, to 'pipe:':
  Metadata:
    COMPATIBLE_BRANDS: isomiso2avc1mp41
    MAJOR_BRAND     : isom
    MINOR_VERSION   : 512
    encoder         : Lavf61.7.100
  Stream #0:0: Video: wrapped_avframe, yuv420p10le(tv, bt709, progressive), 1920x1080 [SAR 1:1 DAR 16:9], q=2-31, 200 kb/s, 23.98 fps, 23.98 tbn
      Metadata:
        encoder         : Lavc61.19.100 wrapped_avframe
  Stream #0:1: Audio: pcm_s16le, 48000 Hz, stereo, s16, 1536 kb/s (default)
      Metadata:
        HANDLER_NAME    : SoundHandler
        VENDOR_ID       : [0][0][0][0]
        _STATISTICS_TAGS: BPS DURATION NUMBER_OF_FRAMES NUMBER_OF_BYTES
        BPS             : 192737
        DURATION        : 00:23:56.629000000
        NUMBER_OF_FRAMES: 67343
        NUMBER_OF_BYTES : 34611548
        _STATISTICS_WRITING_APP: mkvpropedit v66.0.0 ('Josie') 64-bit
        _STATISTICS_WRITING_DATE_UTC: 2025-05-07 13:27:20
        encoder         : Lavc61.19.100 pcm_s16le
frame=  166 fps=0.0 q=-0.0 size=N/A time=00:00:06.92 bitrate=N/A speed=13.6x    frame=  387 fps=374 q=-0.0 size=N/A time=00:00:16.14 bitrate=N/A speed=15.6x    frame=  625 fps=403 q=-0.0 size=N/A time=00:00:26.06 bitrate=N/A speed=16.8x    frame=  848 fps=413 q=-0.0 size=N/A time=00:00:35.36 bitrate=N/A speed=17.2x    frame= 1085 fps=421 q=-0.0 size=N/A time=00:00:45.25 bitrate=N/A speed=17.5x    frame= 1326 fps=430 q=-0.0 size=N/A time=00:00:55.30 bitrate=N/A speed=17.9x    frame= 1499 fps=415 q=-0.0 size=N/A time=00:01:02.52 bitrate=N/A speed=17.3x    frame= 1656 fps=403 q=-0.0 size=N/A time=00:01:09.06 bitrate=N/A speed=16.8x    frame= 1892 fps=408 q=-0.0 size=N/A time=00:01:18.91 bitrate=N/A speed=  17x    frame= 2156 fps=418 q=-0.0 size=N/A time=00:01:29.92 bitrate=N/A speed=17.4x    frame= 2418 fps=425 q=-0.0 size=N/A time=00:01:40.85 bitrate=N/A speed=17.7x    frame= 2647 fps=427 q=-0.0 size=N/A time=00:01:50.40 bitrate=N/A speed=17.8x    frame= 2869 fps=427 q=-0.0 size=N/A time=00:01:59.66 bitrate=N/A speed=17.8x    frame= 3111 fps=431 q=-0.0 size=N/A time=00:02:09.75 bitrate=N/A speed=  18x    frame= 3342 fps=431 q=-0.0 size=N/A time=00:02:19.38 bitrate=N/A speed=  18x    frame= 3583 fps=434 q=-0.0 size=N/A time=00:02:29.44 bitrate=N/A speed=18.1x    frame= 3815 fps=434 q=-0.0 size=N/A time=00:02:39.11 bitrate=N/A speed=18.1x    frame= 4050 fps=436 q=-0.0 size=N/A time=00:02:48.91 bitrate=N/A speed=18.2x    frame= 4312 fps=439 q=-0.0 size=N/A time=00:02:59.88 bitrate=N/A speed=18.3x    frame= 4559 fps=441 q=-0.0 size=N/A time=00:03:10.14 bitrate=N/A speed=18.4x    frame= 4808 fps=444 q=-0.0 size=N/A time=00:03:20.53 bitrate=N/A speed=18.5x    frame= 5060 fps=445 q=-0.0 size=N/A time=00:03:31.04 bitrate=N/A speed=18.6x    frame= 5298 fps=446 q=-0.0 size=N/A time=00:03:40.97 bitrate=N/A speed=18.6x    frame= 5548 fps=448 q=-0.0 size=N/A time=00:03:51.39 bitrate=N/A speed=18.7x    frame= 5792 fps=449 q=-0.0 size=N/A time=00:04:01.57 bitrate=N/A speed=18.7x    frame= 6038 fps=450 q=-0.0 size=N/A time=00:04:11.83 bitrate=N/A speed=18.8x    frame= 6280 fps=451 q=-0.0 size=N/A time=00:04:21.92 bitrate=N/A speed=18.8x    frame= 6525 fps=451 q=-0.0 size=N/A time=00:04:32.14 bitrate=N/A speed=18.8x    frame= 6763 fps=452 q=-0.0 size=N/A time=00:04:42.07 bitrate=N/A speed=18.9x    frame= 7017 fps=453 q=-0.0 size=N/A time=00:04:52.66 bitrate=N/A speed=18.9x    frame= 7258 fps=454 q=-0.0 size=N/A time=00:05:02.71 bitrate=N/A speed=18.9x    frame= 7507 fps=455 q=-0.0 size=N/A time=00:05:13.10 bitrate=N/A speed=  19x    frame= 7750 fps=455 q=-0.0 size=N/A time=00:05:23.23 bitrate=N/A speed=  19x    frame= 7995 fps=456 q=-0.0 size=N/A time=00:05:33.45 bitrate=N/A speed=  19x    frame= 8221 fps=455 q=-0.0 size=N/A time=00:05:42.88 bitrate=N/A speed=  19x    frame= 8464 fps=456 q=-0.0 size=N/A time=00:05:53.01 bitrate=N/A speed=  19x    frame= 8691 fps=455 q=-0.0 size=N/A time=00:06:02.48 bitrate=N/A speed=  19x    frame= 8922 fps=455 q=-0.0 size=N/A time=00:06:12.12 bitrate=N/A speed=  19x    frame= 9155 fps=455 q=-0.0 size=N/A time=00:06:21.83 bitrate=N/A speed=  19x    frame= 9391 fps=455 q=-0.0 size=N/A time=00:06:31.68 bitrate=N/A speed=  19x    frame= 9635 fps=455 q=-0.0 size=N/A time=00:06:41.85 bitrate=N/A speed=  19x    frame= 9856 fps=455 q=-0.0 size=N/A time=00:06:51.07 bitrate=N/A speed=  19x    frame=10083 fps=454 q=-0.0 size=N/A time=00:07:00.54 bitrate=N/A speed=  19x    frame=10329 fps=455 q=-0.0 size=N/A time=00:07:10.80 bitrate=N/A speed=  19x    frame=10542 fps=454 q=-0.0 size=N/A time=00:07:19.68 bitrate=N/A speed=18.9x    frame=10779 fps=454 q=-0.0 size=N/A time=00:07:29.57 bitrate=N/A speed=18.9x    frame=11022 fps=454 q=-0.0 size=N/A time=00:07:39.70 bitrate=N/A speed=18.9x    frame=11263 fps=455 q=-0.0 size=N/A time=00:07:49.76 bitrate=N/A speed=  19x    frame=11520 fps=455 q=-0.0 size=N/A time=00:08:00.48 bitrate=N/A speed=  19x    frame=11753 fps=455 q=-0.0 size=N/A time=00:08:10.19 bitrate=N/A speed=  19x    frame=11992 fps=456 q=-0.0 size=N/A time=00:08:20.16 bitrate=N/A speed=  19x    frame=12232 fps=456 q=-0.0 size=N/A time=00:08:30.17 bitrate=N/A speed=  19x    frame=12452 fps=455 q=-0.0 size=N/A time=00:08:39.35 bitrate=N/A speed=  19x    frame=12676 fps=455 q=-0.0 size=N/A time=00:08:48.69 bitrate=N/A speed=  19x    frame=12910 fps=455 q=-0.0 size=N/A time=00:08:58.45 bitrate=N/A speed=  19x    frame=13155 fps=455 q=-0.0 size=N/A time=00:09:08.67 bitrate=N/A speed=  19x    frame=13397 fps=455 q=-0.0 size=N/A time=00:09:18.76 bitrate=N/A speed=  19x    frame=13629 fps=455 q=-0.0 size=N/A time=00:09:28.44 bitrate=N/A speed=  19x    frame=13871 fps=456 q=-0.0 size=N/A time=00:09:38.53 bitrate=N/A speed=  19x    frame=14105 fps=455 q=-0.0 size=N/A time=00:09:48.29 bitrate=N/A speed=  19x    frame=14344 fps=456 q=-0.0 size=N/A time=00:09:58.26 bitrate=N/A speed=  19x    frame=14576 fps=455 q=-0.0 size=N/A time=00:10:07.94 bitrate=N/A speed=  19x    frame=14807 fps=455 q=-0.0 size=N/A time=00:10:17.57 bitrate=N/A speed=  19x    frame=15034 fps=455 q=-0.0 size=N/A time=00:10:27.04 bitrate=N/A speed=  19x    frame=15252 fps=455 q=-0.0 size=N/A time=00:10:36.13 bitrate=N/A speed=  19x    frame=15500 fps=455 q=-0.0 size=N/A time=00:10:46.47 bitrate=N/A speed=  19x    frame=15737 fps=455 q=-0.0 size=N/A time=00:10:56.36 bitrate=N/A speed=  19x    frame=15960 fps=455 q=-0.0 size=N/A time=00:11:05.66 bitrate=N/A speed=  19x    frame=16172 fps=454 q=-0.0 size=N/A time=00:11:14.50 bitrate=N/A speed=18.9x    frame=16422 fps=455 q=-0.0 size=N/A time=00:11:24.93 bitrate=N/A speed=  19x    frame=16649 fps=454 q=-0.0 size=N/A time=00:11:34.40 bitrate=N/A speed=  19x    frame=16911 fps=455 q=-0.0 size=N/A time=00:11:45.32 bitrate=N/A speed=  19x    frame=17168 fps=456 q=-0.0 size=N/A time=00:11:56.04 bitrate=N/A speed=  19x    frame=17403 fps=456 q=-0.0 size=N/A time=00:12:05.85 bitrate=N/A speed=  19x    frame=17678 fps=457 q=-0.0 size=N/A time=00:12:17.31 bitrate=N/A speed=19.1x    frame=17946 fps=458 q=-0.0 size=N/A time=00:12:28.49 bitrate=N/A speed=19.1x    frame=18205 fps=458 q=-0.0 size=N/A time=00:12:39.30 bitrate=N/A speed=19.1x    frame=18469 fps=459 q=-0.0 size=N/A time=00:12:50.31 bitrate=N/A speed=19.1x    frame=18740 fps=460 q=-0.0 size=N/A time=00:13:01.61 bitrate=N/A speed=19.2x    frame=19014 fps=461 q=-0.0 size=N/A time=00:13:13.04 bitrate=N/A speed=19.2x    frame=19269 fps=461 q=-0.0 size=N/A time=00:13:23.67 bitrate=N/A speed=19.2x    frame=19515 fps=461 q=-0.0 size=N/A time=00:13:33.93 bitrate=N/A speed=19.2x    frame=19781 fps=462 q=-0.0 size=N/A time=00:13:45.03 bitrate=N/A speed=19.3x    frame=20072 fps=463 q=-0.0 size=N/A time=00:13:57.16 bitrate=N/A speed=19.3x    frame=20346 fps=464 q=-0.0 size=N/A time=00:14:08.59 bitrate=N/A speed=19.3x    frame=20614 fps=465 q=-0.0 size=N/A time=00:14:19.77 bitrate=N/A speed=19.4x    frame=20876 fps=465 q=-0.0 size=N/A time=00:14:30.70 bitrate=N/A speed=19.4x    frame=21157 fps=466 q=-0.0 size=N/A time=00:14:42.42 bitrate=N/A speed=19.4x    frame=21424 fps=467 q=-0.0 size=N/A time=00:14:53.55 bitrate=N/A speed=19.5x    frame=21703 fps=467 q=-0.0 size=N/A time=00:15:05.19 bitrate=N/A speed=19.5x    frame=21955 fps=468 q=-0.0 size=N/A time=00:15:15.70 bitrate=N/A speed=19.5x    frame=22216 fps=468 q=-0.0 size=N/A time=00:15:26.59 bitrate=N/A speed=19.5x    frame=22474 fps=468 q=-0.0 size=N/A time=00:15:37.35 bitrate=N/A speed=19.5x    frame=22721 fps=468 q=-0.0 size=N/A time=00:15:47.65 bitrate=N/A speed=19.5x    frame=22983 fps=469 q=-0.0 size=N/A time=00:15:58.58 bitrate=N/A speed=19.6x    frame=23253 fps=469 q=-0.0 size=N/A time=00:16:09.84 bitrate=N/A speed=19.6x    frame=23463 fps=469 q=-0.0 size=N/A time=00:16:18.60 bitrate=N/A speed=19.5x    frame=23704 fps=469 q=-0.0 size=N/A time=00:16:28.65 bitrate=N/A speed=19.5x    frame=23934 fps=468 q=-0.0 size=N/A time=00:16:38.24 bitrate=N/A speed=19.5x    frame=24207 fps=469 q=-0.0 size=N/A time=00:16:49.63 bitrate=N/A speed=19.6x    frame=24461 fps=469 q=-0.0 size=N/A time=00:17:00.22 bitrate=N/A speed=19.6x    frame=24726 fps=470 q=-0.0 size=N/A time=00:17:11.28 bitrate=N/A speed=19.6x    frame=25010 fps=470 q=-0.0 size=N/A time=00:17:23.12 bitrate=N/A speed=19.6x    frame=25248 fps=470 q=-0.0 size=N/A time=00:17:33.05 bitrate=N/A speed=19.6x    frame=25501 fps=470 q=-0.0 size=N/A time=00:17:43.60 bitrate=N/A speed=19.6x    frame=25763 fps=471 q=-0.0 size=N/A time=00:17:54.53 bitrate=N/A speed=19.6x    frame=26034 fps=471 q=-0.0 size=N/A time=00:18:05.83 bitrate=N/A speed=19.7x    frame=26270 fps=471 q=-0.0 size=N/A time=00:18:15.67 bitrate=N/A speed=19.7x    frame=26520 fps=471 q=-0.0 size=N/A time=00:18:26.10 bitrate=N/A speed=19.7x    frame=26784 fps=472 q=-0.0 size=N/A time=00:18:37.11 bitrate=N/A speed=19.7x    frame=27050 fps=472 q=-0.0 size=N/A time=00:18:48.21 bitrate=N/A speed=19.7x    frame=27307 fps=472 q=-0.0 size=N/A time=00:18:58.92 bitrate=N/A speed=19.7x    frame=27588 fps=473 q=-0.0 size=N/A time=00:19:10.64 bitrate=N/A speed=19.7x    frame=27851 fps=473 q=-0.0 size=N/A time=00:19:21.61 bitrate=N/A speed=19.7x    frame=28111 fps=474 q=-0.0 size=N/A time=00:19:32.46 bitrate=N/A speed=19.8x    frame=28383 fps=474 q=-0.0 size=N/A time=00:19:43.80 bitrate=N/A speed=19.8x    frame=28587 fps=473 q=-0.0 size=N/A time=00:19:52.31 bitrate=N/A speed=19.7x    frame=28851 fps=474 q=-0.0 size=N/A time=00:20:03.32 bitrate=N/A speed=19.8x    frame=29122 fps=474 q=-0.0 size=N/A time=00:20:14.63 bitrate=N/A speed=19.8x    frame=29358 fps=474 q=-0.0 size=N/A time=00:20:24.47 bitrate=N/A speed=19.8x    frame=29583 fps=474 q=-0.0 size=N/A time=00:20:33.85 bitrate=N/A speed=19.8x    frame=29863 fps=474 q=-0.0 size=N/A time=00:20:45.53 bitrate=N/A speed=19.8x    frame=30141 fps=475 q=-0.0 size=N/A time=00:20:57.13 bitrate=N/A speed=19.8x    frame=30413 fps=475 q=-0.0 size=N/A time=00:21:08.47 bitrate=N/A speed=19.8x    frame=30693 fps=476 q=-0.0 size=N/A time=00:21:20.15 bitrate=N/A speed=19.8x    frame=30972 fps=476 q=-0.0 size=N/A time=00:21:31.79 bitrate=N/A speed=19.9x    frame=31235 fps=477 q=-0.0 size=N/A time=00:21:42.75 bitrate=N/A speed=19.9x    frame=31502 fps=477 q=-0.0 size=N/A time=00:21:53.89 bitrate=N/A speed=19.9x    frame=31758 fps=477 q=-0.0 size=N/A time=00:22:04.57 bitrate=N/A speed=19.9x    frame=32032 fps=478 q=-0.0 size=N/A time=00:22:16.00 bitrate=N/A speed=19.9x    frame=32262 fps=477 q=-0.0 size=N/A time=00:22:25.59 bitrate=N/A speed=19.9x    frame=32509 fps=477 q=-0.0 size=N/A time=00:22:35.89 bitrate=N/A speed=19.9x    frame=32726 fps=477 q=-0.0 size=N/A time=00:22:44.94 bitrate=N/A speed=19.9x    frame=32907 fps=476 q=-0.0 size=N/A time=00:22:52.49 bitrate=N/A speed=19.8x    frame=33147 fps=476 q=-0.0 size=N/A time=00:23:02.50 bitrate=N/A speed=19.8x    frame=33345 fps=475 q=-0.0 size=N/A time=00:23:10.76 bitrate=N/A speed=19.8x    frame=33543 fps=474 q=-0.0 size=N/A time=00:23:19.02 bitrate=N/A speed=19.8x    frame=33761 fps=474 q=-0.0 size=N/A time=00:23:28.11 bitrate=N/A speed=19.8x    frame=33892 fps=472 q=-0.0 size=N/A time=00:23:33.57 bitrate=N/A speed=19.7x    frame=34088 fps=472 q=-0.0 size=N/A time=00:23:41.75 bitrate=N/A speed=19.7x    frame=34301 fps=471 q=-0.0 size=N/A time=00:23:50.63 bitrate=N/A speed=19.7x    [Parsed_ssim_10 @ 000001e12960ce40] SSIM Y:0.991751 (20.836111) U:0.996041 (24.024472) V:0.995975 (23.952634) All:0.993170 (21.655953)
[out#0/null @ 000001e1291fd2c0] video:14799KiB audio:269372KiB subtitle:0KiB other streams:0KiB global headers:0KiB muxing overhead: unknown
frame=34442 fps=471 q=-0.0 Lsize=N/A time=00:23:56.51 bitrate=N/A speed=19.7x    
